<?xml version="1.0" standalone="no"?>
<!DOCTYPE svg PUBLIC "-//W3C//DTD SVG 20010904//EN"
 "http://www.w3.org/TR/2001/REC-SVG-20010904/DTD/svg10.dtd">
<svg version="1.0" xmlns="http://www.w3.org/2000/svg"
 width="208.000000pt" height="208.000000pt" viewBox="0 0 208.000000 208.000000"
 preserveAspectRatio="xMidYMid meet">
<metadata>
Created by potrace 1.11, written by Peter Selinger 2001-2013
</metadata>
<g transform="translate(0.000000,208.000000) scale(0.100000,-0.100000)"
fill="#000000" stroke="none">
<path d="M320 1794 c-64 -20 -132 -70 -168 -123 -62 -92 -62 -83 -61 -634 0
-571 -1 -560 84 -654 84 -94 148 -112 383 -110 l177 2 0 78 c0 45 -4 77 -10
78 -5 0 -86 2 -180 3 -93 1 -181 7 -195 13 -32 14 -76 61 -89 95 -7 18 -10
197 -8 511 l2 483 25 37 c52 77 17 74 762 73 631 -1 666 -2 699 -20 20 -10 46
-35 60 -54 l24 -36 0 -420 0 -421 -257 1 c-291 0 -261 10 -260 -81 1 -90 -42
-80 342 -80 l341 -1 -3 516 -3 515 -28 56 c-44 91 -116 150 -212 175 -74 20
-1360 18 -1425 -2z"/>
<path d="M425 1492 c-28 -3 -30 -6 -28 -40 1 -20 2 -56 2 -80 l1 -42 647 2
646 3 1 73 c1 41 -3 76 -8 80 -9 5 -1205 10 -1261 4z"/>
<path d="M395 1217 c-2 -7 -3 -43 -2 -82 l2 -70 642 0 c354 0 644 2 644 5 1 3
3 40 3 82 l2 77 -643 0 c-495 0 -645 -3 -648 -12z"/>
<path d="M400 962 c-6 -2 -10 -39 -10 -82 l0 -79 647 2 646 2 1 68 c1 38 -2
74 -6 80 -4 7 -201 11 -637 11 -347 1 -636 0 -641 -2z"/>
<path d="M396 691 c-7 -12 -6 -151 2 -152 36 -6 795 -2 799 4 4 7 7 107 4 143
-1 12 -798 16 -805 5z"/>
<path d="M894 431 c-2 -2 -4 -39 -4 -82 l0 -78 404 0 c297 1 406 4 408 12 3 7
4 43 4 81 l-1 70 -403 0 c-222 1 -406 -1 -408 -3z"/>
</g>
</svg>
